<?xml version="1.0" encoding="UTF-8" standalone="no"?>
<!-- Created with Inkscape (http://www.inkscape.org/) -->

<svg
   width="80mm"
   height="80mm"
   viewBox="0 0 80 79.999996"
   version="1.1"
   id="svg1556"
   sodipodi:docname="frites-open-source.svg"
   inkscape:version="1.2 (dc2aeda, 2022-05-15)"
   xml:space="preserve"
   xmlns:inkscape="http://www.inkscape.org/namespaces/inkscape"
   xmlns:sodipodi="http://sodipodi.sourceforge.net/DTD/sodipodi-0.dtd"
   xmlns="http://www.w3.org/2000/svg"
   xmlns:svg="http://www.w3.org/2000/svg"><sodipodi:namedview
     id="namedview1558"
     pagecolor="#505050"
     bordercolor="#eeeeee"
     borderopacity="1"
     inkscape:pageshadow="0"
     inkscape:pageopacity="0"
     inkscape:pagecheckerboard="0"
     inkscape:document-units="mm"
     showgrid="false"
     inkscape:snap-others="false"
     inkscape:snap-grids="false"
     inkscape:snap-to-guides="false"
     inkscape:showpageshadow="0"
     inkscape:deskcolor="#505050"
     inkscape:zoom="0.69640804"
     inkscape:cx="-135.69631"
     inkscape:cy="-54.565711"
     inkscape:window-width="1280"
     inkscape:window-height="720"
     inkscape:window-x="0"
     inkscape:window-y="0"
     inkscape:window-maximized="0"
     inkscape:current-layer="layer1" /><defs
     id="defs1553" /><g
     inkscape:label="Calque 1"
     inkscape:groupmode="layer"
     id="layer1"
     style="display:inline"
     transform="translate(51.755131,-633.91571)"><rect
       style="display:inline;fill:#70b5df;fill-opacity:1;stroke:none;stroke-width:0.34915;stroke-dasharray:none;stroke-opacity:1"
       id="rect3003"
       width="80"
       height="80"
       x="-51.755131"
       y="633.91571" /><g
       id="g3863"
       transform="translate(2.3842738,-0.03990103)"><path
         style="opacity:1;fill:#9f0402;fill-opacity:1;stroke:none;stroke-width:0.264583"
         d="m 4.6406249,657.9536 1.595215,2.61035 -4.6406251,38.41775 c -8.6664274,1.22037 -26.1458038,1.88472 -31.4355578,0.35523 l -2.547266,-38.01846 31.44498584,-2.42229 z"
         id="path7792"
         sodipodi:nodetypes="ccccccc" /><path
         style="opacity:1;fill:#e09a12;fill-opacity:1;stroke:none;stroke-width:0.264583"
         d="m -29.221435,663.8994 -5.293214,-10.80395 2.175293,-2.46533 h 1.450197 l 1.812742,5.22071 -0.362548,-5.9458 1.812745,-0.58007 2.320312,0.21751 1.885254,19.2876 c 0,0 3.552979,-0.29004 3.262939,-0.79762 -0.290039,-0.50755 -3.335449,-11.09398 -3.335449,-11.09398 l 1.740235,-1.30519 2.030273,0.0725 2.392822,12.6892 0.652588,0.0725 -0.652588,-18.99756 1.450196,-0.72511 1.885253,0.29003 0.652588,7.17849 1.305176,0.14502 0.03808,-4.38061 1.702159,-0.84009 1.5893066,0.11862 0.9592066,0.35695 -0.083182,3.51246 1.5952147,0.58008 -0.4350586,12.18163 2.0302736,0.43505 -1.0876465,-6.45335 1.0620104,-11.87478 2.2734388,-0.37937 1.66772455,0.79759 -1.16015625,12.68923 1.30517577,-1.66775 -0.36254883,-2.53783 2.53784176,-9.13622 v 0 l 3.5892333,1.88525 c -3.0652325,8.13162 -3.435959,15.80778 -5.03942857,23.6382 H -28.133788 Z"
         id="path8241"
         sodipodi:nodetypes="cccccccccsccccccccccccccccccccccccccccccc" /><path
         style="opacity:1;fill:#eed30d;fill-opacity:1;stroke:none;stroke-width:0.264583"
         d="m -30.985832,659.61616 -2.922513,-6.87046 1.604452,-1.40612 3.01004,8.32786 1.589436,0.25635 -1.179258,-9.74169 2.15343,-0.2051 c 0,0 0.820354,11.02352 1.179259,10.97224 0.358904,-0.0513 4.819581,5.48611 4.819581,5.48611 l -2.563606,-9.63914 2.461061,-0.35891 1.897071,11.2286 2.307246,1.74323 -0.666539,-19.94484 2.35852,-0.15383 0.205089,6.71666 -1.127987,0.30763 0.102544,14.76637 0.717809,-0.0513 c 0,0 -0.615264,-14.25363 -0.307631,-14.25363 0.307631,0 2.307246,-0.10255 2.307246,-0.10255 l -0.205089,14.66381 1.845797,-2.81995 -0.461449,-16.45836 2.6661507,-0.30763 -0.102542,3.4865 -1.0767167,-0.0513 -0.666538,15.02275 0.922898,-3.23014 0.1538177,-11.2286 h 2.409791 l -0.769083,11.63876 3.127603,-1.74324 -0.461452,-5.07595 1.2305317,-10.40823 2.358519,0.1538 -1.333076,11.74134 2.87123997,-1.53818 -0.05127,-2.40978 2.17666823,-8.36928 2.1964816,1.46514 -1.6044551,6.69904 -0.51272,4.35814 v 10.51078 H -30.268022 Z"
         id="path17989"
         sodipodi:nodetypes="cccccccscccccccccccscccccccccccccccccccccccccc" /><path
         style="opacity:1;fill:#bc3718;fill-opacity:1;stroke:none;stroke-width:0.264583"
         d="m -34.07959,659.11377 10.803956,-0.21755 c 0,0 1.30996,9.81122 9.571289,9.39002 7.5045717,-0.38262 8.8835129,-10.00012 8.8835129,-10.00012 l 9.461457,-0.33252 -5.36572255,40.0254 c -9.59907135,0.90018 -17.91617535,1.21143 -29.32033435,0.43505 z"
         id="path2618"
         sodipodi:nodetypes="ccsccccc" /><g
         transform="matrix(0.04134775,0,0,0.04134775,-28.285357,656.29883)"
         id="layer1-4"
         style="stroke-width:0.99158963;stroke-dasharray:none"><path
           inkscape:connector-curvature="0"
           d="m 324.30413,483.02448 c -65.61806,7.15879 -125.42426,53.54473 -147.36911,121.20292 -28.66266,88.3699 18.13616,179.60411 104.54629,203.79011 L 314.6672,705.66005 c -22.64818,-6.35044 -39.44094,-26.38107 -40.60988,-51.70828 -1.51591,-32.84499 23.81553,-62.12572 56.57935,-65.40034 32.76382,-3.27462 60.55305,20.6969 62.06896,53.54189 1.16894,25.32721 -13.62914,48.51522 -35.48583,59.31375 l 42.28607,94.81433 c 42.79436,-21.12015 75.6136,-59.05609 90.32206,-104.40371 28.66265,-88.36988 -18.13778,-179.63885 -104.54789,-203.82485 -20.25237,-5.66859 -40.88874,-7.15984 -60.97591,-4.96836 z"
           id="path2830"
           style="fill:#eed30d;fill-opacity:0.81165922;stroke:none;stroke-width:0.99158963;stroke-miterlimit:4;stroke-dasharray:none;stroke-opacity:1" /></g></g></g></svg>
