<?xml version="1.0" encoding="UTF-8" standalone="no"?>
<!-- Created with Inkscape (http://www.inkscape.org/) -->

<svg
   version="1.1"
   id="svg2"
   width="159.88133"
   height="62.427998"
   viewBox="0 0 159.88133 62.427997"
   sodipodi:docname="Logo IMT blanc.svg"
   inkscape:version="1.2 (dc2aeda, 2022-05-15)"
   xmlns:inkscape="http://www.inkscape.org/namespaces/inkscape"
   xmlns:sodipodi="http://sodipodi.sourceforge.net/DTD/sodipodi-0.dtd"
   xmlns="http://www.w3.org/2000/svg"
   xmlns:svg="http://www.w3.org/2000/svg">
  <defs
     id="defs6">
    <clipPath
       clipPathUnits="userSpaceOnUse"
       id="clipPath16">
      <path
         d="M 0,841.945 H 594.96 V 0.055 H 0 Z"
         id="path14" />
    </clipPath>
    <clipPath
       clipPathUnits="userSpaceOnUse"
       id="clipPath106">
      <path
         d="M 0,841.945 H 594.96 V 0.055 H 0 Z"
         id="path104" />
    </clipPath>
  </defs>
  <sodipodi:namedview
     id="namedview4"
     pagecolor="#ffffff"
     bordercolor="#eeeeee"
     borderopacity="1"
     inkscape:showpageshadow="0"
     inkscape:pageopacity="0"
     inkscape:pagecheckerboard="0"
     inkscape:deskcolor="#ffffff"
     showgrid="false"
     inkscape:zoom="0.84139767"
     inkscape:cx="250.77322"
     inkscape:cy="46.351448"
     inkscape:window-width="1280"
     inkscape:window-height="800"
     inkscape:window-x="0"
     inkscape:window-y="0"
     inkscape:window-maximized="0"
     inkscape:current-layer="g8" />
  <g
     id="g8"
     inkscape:groupmode="layer"
     inkscape:label="IMT_CHARTE_2017_11012017"
     transform="matrix(0,1.3333333,1.3333333,0,-482.10132,-660.70665)">
    <g
       id="g824">
      <g
         id="g204"
         transform="translate(495.53,430.097)" />
      <g
         id="g776">
        <g
           id="g200"
           transform="translate(495.53,395.835)">
          <path
             d="M 0,0 34.262,-34.259 H 0 V 0"
             style="fill:#ffffff;fill-opacity:1;fill-rule:nonzero;stroke:none"
             id="path202" />
        </g>
        <path
           d="M 0,0 H 34.262 V -34.262 H 0 L 17.131,-17.131 0,0"
           style="fill:#ffffff;fill-opacity:1;fill-rule:nonzero;stroke:none"
           id="path206"
           transform="translate(495.53,430.097)" />
        <g
           id="g208"
           transform="translate(529.792,447.228)">
          <path
             d="M 0,0 H -17.131 V -17.131 L -34.262,0 V 34.259 L 0,0"
             style="fill:#ffffff;fill-opacity:1;fill-rule:nonzero;stroke:none"
             id="path210" />
        </g>
        <path
           d="m 534.699,361.576 h 7.513 v 1.652 h -7.513 z"
           style="fill:#ffffff;fill-opacity:1;fill-rule:nonzero;stroke:none"
           id="path212" />
        <g
           id="g214"
           transform="translate(536.772,365.817)">
          <path
             d="m 0,0 h 0.758 v 0.031 c -0.633,0.379 -0.906,1.03 -0.906,1.663 0,1.67 1.011,1.989 2.242,1.989 H 5.44 V 2.189 H 2.367 c -0.976,0 -1.336,-0.296 -1.336,-0.958 0,-0.87 0.527,-1.158 1.557,-1.158 H 5.44 V -1.421 H 0 V 0"
             style="fill:#ffffff;fill-opacity:1;fill-rule:nonzero;stroke:none"
             id="path216" />
        </g>
        <g
           id="g218"
           transform="translate(536.772,411.948)">
          <path
             d="m 0,0 h 0.758 v 0.032 c -0.633,0.379 -0.906,1.03 -0.906,1.663 0,1.67 1.011,1.988 2.242,1.988 H 5.44 V 2.189 H 2.367 C 1.391,2.189 1.031,1.894 1.031,1.231 1.031,0.362 1.558,0.074 2.588,0.074 H 5.44 V -1.42 H 0 V 0"
             style="fill:#ffffff;fill-opacity:1;fill-rule:nonzero;stroke:none"
             id="path220" />
        </g>
        <g
           id="g222"
           transform="translate(541.359,372.814)">
          <path
             d="m 0,0 c 0,0.281 -0.103,0.979 -0.694,0.979 -0.224,0 -0.393,-0.149 -0.505,-0.447 -0.112,-0.299 -0.224,-0.714 -0.337,-1.247 -0.205,-0.912 -0.505,-1.726 -1.452,-1.726 -1.381,0 -1.747,1.19 -1.747,2.368 0,1.221 0.436,2.29 1.737,2.399 V 0.905 c -0.593,-0.007 -0.737,-0.572 -0.737,-1.021 0,-0.347 0.065,-0.831 0.505,-0.831 0.455,0 0.593,0.685 0.674,1.073 0.079,0.385 0.19,0.888 0.315,1.258 0.226,0.666 0.659,1.089 1.347,1.089 1.077,0 1.884,-0.751 1.884,-2.484 0,-1.343 -0.513,-2.503 -1.905,-2.556 v 1.42 C -0.204,-1.147 0,-0.477 0,0"
             style="fill:#ffffff;fill-opacity:1;fill-rule:nonzero;stroke:none"
             id="path224" />
        </g>
        <g
           id="g226"
           transform="translate(541.359,424.859)">
          <path
             d="m 0,0 c 0,0.281 -0.103,0.978 -0.694,0.978 -0.224,0 -0.393,-0.149 -0.505,-0.446 -0.112,-0.299 -0.224,-0.714 -0.337,-1.247 -0.205,-0.912 -0.505,-1.726 -1.452,-1.726 -1.381,0 -1.747,1.191 -1.747,2.368 0,1.221 0.436,2.29 1.737,2.399 V 0.905 c -0.593,-0.007 -0.737,-0.572 -0.737,-1.021 0,-0.347 0.065,-0.831 0.505,-0.831 0.455,0 0.593,0.685 0.674,1.073 0.079,0.385 0.19,0.888 0.315,1.258 0.226,0.666 0.659,1.089 1.347,1.089 1.077,0 1.884,-0.75 1.884,-2.483 0,-1.344 -0.513,-2.504 -1.905,-2.557 v 1.42 C -0.204,-1.147 0,-0.477 0,0"
             style="fill:#ffffff;fill-opacity:1;fill-rule:nonzero;stroke:none"
             id="path228" />
        </g>
        <g
           id="g230"
           transform="translate(536.772,379.022)">
          <path
             d="m 0,0 h 0.999 v -1.094 h 2.694 c 0.586,0 0.704,0.159 0.589,1.094 H 5.44 c 0.046,-0.273 0.053,-0.569 0.053,-0.873 0,-0.953 -0.206,-1.715 -1.284,-1.715 H 0.999 V -3.493 H 0 v 0.905 h -1.631 v 1.494 H 0 V 0"
             style="fill:#ffffff;fill-opacity:1;fill-rule:nonzero;stroke:none"
             id="path232" />
        </g>
        <g
           id="g234"
           transform="translate(536.772,385.368)">
          <path
             d="m 0,0 h 0.999 v -1.095 h 2.694 c 0.586,0 0.704,0.159 0.589,1.095 H 5.44 c 0.046,-0.274 0.053,-0.57 0.053,-0.874 0,-0.953 -0.206,-1.715 -1.284,-1.715 H 0.999 V -3.494 H 0 v 0.905 h -1.631 v 1.494 H 0 V 0"
             style="fill:#ffffff;fill-opacity:1;fill-rule:nonzero;stroke:none"
             id="path236" />
        </g>
        <g
           id="g238"
           transform="translate(536.772,395.133)">
          <path
             d="m 0,0 h 0.999 v -1.094 h 2.694 c 0.586,0 0.704,0.159 0.589,1.094 H 5.44 c 0.046,-0.274 0.053,-0.569 0.053,-0.873 0,-0.953 -0.206,-1.715 -1.284,-1.715 H 0.999 V -3.493 H 0 v 0.905 h -1.631 v 1.494 H 0 V 0"
             style="fill:#ffffff;fill-opacity:1;fill-rule:nonzero;stroke:none"
             id="path240" />
        </g>
        <g
           id="g242"
           transform="translate(536.772,381.327)">
          <path
             d="M 0,0 H 5.44 V -1.494 H 0 Z M -0.842,-1.494 H -2.073 V 0 h 1.231 z"
             style="fill:#ffffff;fill-opacity:1;fill-rule:nonzero;stroke:none"
             id="path244" />
        </g>
        <g
           id="g246"
           transform="translate(542.212,389.715)">
          <path
             d="m 0,0 h -0.758 v -0.032 c 0.622,-0.373 0.895,-1.025 0.895,-1.663 0,-1.383 -0.634,-1.988 -2.231,-1.988 H -5.44 v 1.494 h 3.072 c 0.852,0 1.337,0.209 1.337,0.957 0,0.919 -0.599,1.158 -1.558,1.158 H -5.44 V 1.42 H 0 V 0"
             style="fill:#ffffff;fill-opacity:1;fill-rule:nonzero;stroke:none"
             id="path248" />
        </g>
        <g
           id="g250"
           transform="translate(534.699,401.005)">
          <path
             d="M 0,0 5.166,1.757 V 1.778 L 0,3.441 V 5.766 H 7.513 V 4.219 H 2.189 V 4.198 L 7.513,2.357 V 1.084 L 2.241,-0.758 V -0.779 H 7.513 V -2.325 H 0 V 0"
             style="fill:#ffffff;fill-opacity:1;fill-rule:nonzero;stroke:none"
             id="path252" />
        </g>
        <g
           id="g254"
           transform="translate(536.772,409.476)">
          <path
             d="M 0,0 H 5.44 V -1.495 H 0 Z M -0.842,-1.495 H -2.073 V 0 h 1.231 z"
             style="fill:#ffffff;fill-opacity:1;fill-rule:nonzero;stroke:none"
             id="path256" />
        </g>
        <g
           id="g258"
           transform="translate(537.751,419.114)">
          <path
             d="M 0,0 C 0,-0.787 0.516,-1.2 1.157,-1.242 V 1.189 C 0.463,1.06 0,0.772 0,0 Z m 3.482,0.094 c 0,0.64 -0.401,1.09 -0.705,1.179 V 2.588 C 3.999,2.194 4.598,1.359 4.598,0.042 c 0,-1.911 -1.375,-2.778 -2.852,-2.778 -1.745,0 -2.873,1.238 -2.873,2.778 0,1.814 1.511,2.756 3.231,2.641 v -3.925 c 1.015,0.045 1.378,0.546 1.378,1.336"
             style="fill:#ffffff;fill-opacity:1;fill-rule:nonzero;stroke:none"
             id="path260" />
        </g>
        <path
           d="m 538.722,428.823 h 1.259 v 3.167 h -1.259 z"
           style="fill:#ffffff;fill-opacity:1;fill-rule:nonzero;stroke:none"
           id="path262" />
        <g
           id="g264"
           transform="translate(536.088,431.804)">
          <path
             d="M 0,0 H -1.389 V 6.155 H 0 V 3.904 H 6.124 V 2.252 H 0 V 0"
             style="fill:#ffffff;fill-opacity:1;fill-rule:nonzero;stroke:none"
             id="path266" />
        </g>
        <path
           d="m 534.699,443.368 h 7.513 v 1.494 h -7.513 z"
           style="fill:#ffffff;fill-opacity:1;fill-rule:nonzero;stroke:none"
           id="path268" />
        <g
           id="g270"
           transform="translate(537.751,454.427)">
          <path
             d="m 0,0 c 0,-0.864 0.825,-1.273 1.767,-1.273 0.823,0 1.715,0.324 1.715,1.242 0,0.794 -0.527,1.104 -1.105,1.189 v 1.441 c 1.49,-0.202 2.221,-1.225 2.221,-2.62 0,-1.7 -1.212,-2.746 -2.778,-2.746 -1.72,0 -2.947,1.03 -2.947,2.778 0,1.316 0.694,2.474 2.063,2.557 V 1.105 C 0.311,1.007 0,0.638 0,0"
             style="fill:#ffffff;fill-opacity:1;fill-rule:nonzero;stroke:none"
             id="path272" />
        </g>
        <g
           id="g274"
           transform="translate(541.233,460.383)">
          <path
             d="m 0,0 c 0,0.906 -0.69,1.325 -1.736,1.325 -1.236,0 -1.746,-0.573 -1.746,-1.325 0,-0.714 0.479,-1.316 1.746,-1.316 C -0.798,-1.316 0,-0.966 0,0 Z m -4.609,0 c 0,1.634 1.056,2.82 2.873,2.82 1.678,0 2.852,-1.048 2.852,-2.82 0,-1.819 -1.24,-2.81 -2.852,-2.81 -1.689,0 -2.873,1.065 -2.873,2.81"
             style="fill:#ffffff;fill-opacity:1;fill-rule:nonzero;stroke:none"
             id="path276" />
        </g>
        <g
           id="g278"
           transform="translate(536.772,465.422)">
          <path
             d="M 0,0 H 0.736 V 0.021 C 0.167,0.42 -0.148,0.98 -0.148,1.683 c 0,0.759 0.301,1.336 0.906,1.589 -0.516,0.349 -0.906,0.914 -0.906,1.641 0,1.09 0.465,1.989 1.947,1.989 H 5.44 V 5.408 H 2.357 c -0.66,0 -1.326,-0.027 -1.326,-0.915 0,-0.846 0.718,-1 1.378,-1 H 5.44 V 1.999 H 2.388 c -0.706,0 -1.357,0.002 -1.357,-0.905 0,-0.279 0.172,-1.01 1.252,-1.01 H 5.44 V -1.41 H 0 V 0"
             style="fill:#ffffff;fill-opacity:1;fill-rule:nonzero;stroke:none"
             id="path280" />
        </g>
        <g
           id="g282"
           transform="translate(533.953,448.619)">
          <path
             d="m 0,0 1.863,-1.115 v 1.041 L 0,1.642 Z M 4.094,0.511 C 3.897,0.332 3.799,0.06 3.799,-0.305 3.799,-0.544 3.84,-0.742 3.92,-0.9 4.001,-1.057 4.101,-1.183 4.22,-1.278 4.339,-1.373 4.466,-1.44 4.599,-1.478 4.732,-1.517 4.852,-1.54 4.957,-1.547 V 0.884 C 4.578,0.814 4.29,0.69 4.094,0.511 Z m 2.863,-1.69 c 0.217,0.225 0.326,0.548 0.326,0.969 0,0.301 -0.076,0.561 -0.227,0.779 C 6.906,0.786 6.746,0.92 6.578,0.968 V 2.284 C 7.23,2.073 7.697,1.751 7.977,1.316 8.258,0.881 8.398,0.355 8.398,-0.263 8.398,-0.691 8.33,-1.077 8.193,-1.421 8.056,-1.765 7.862,-2.056 7.609,-2.294 7.356,-2.533 7.055,-2.717 6.704,-2.847 6.353,-2.976 5.967,-3.041 5.546,-3.041 c -0.407,0 -0.785,0.066 -1.136,0.2 -0.351,0.133 -0.655,0.322 -0.911,0.568 -0.256,0.246 -0.458,0.538 -0.605,0.879 -0.147,0.34 -0.221,0.717 -0.221,1.131 0,0.463 0.089,0.867 0.268,1.21 0.179,0.344 0.42,0.627 0.721,0.848 0.302,0.221 0.646,0.38 1.032,0.479 0.386,0.098 0.789,0.133 1.21,0.105 v -3.926 c 0.484,0.021 0.835,0.144 1.053,0.368"
             style="fill:#ffffff;fill-opacity:1;fill-rule:nonzero;stroke:none"
             id="path284" />
        </g>
        <g
           id="g286"
           transform="translate(533.953,440.117)">
          <path
             d="m 0,0 1.863,-1.115 v 1.042 L 0,1.642 Z M 4.094,0.511 C 3.897,0.332 3.799,0.06 3.799,-0.305 c 0,-0.238 0.041,-0.437 0.121,-0.594 0.081,-0.158 0.181,-0.284 0.3,-0.379 0.119,-0.095 0.246,-0.162 0.379,-0.2 0.133,-0.039 0.253,-0.062 0.358,-0.069 V 0.885 C 4.578,0.814 4.29,0.69 4.094,0.511 Z m 2.863,-1.689 c 0.217,0.224 0.326,0.547 0.326,0.968 0,0.301 -0.076,0.561 -0.227,0.779 -0.15,0.217 -0.31,0.351 -0.478,0.4 V 2.284 C 7.23,2.074 7.697,1.751 7.977,1.316 8.258,0.881 8.398,0.355 8.398,-0.263 8.398,-0.691 8.33,-1.077 8.193,-1.42 8.056,-1.764 7.862,-2.055 7.609,-2.294 7.356,-2.533 7.055,-2.717 6.704,-2.846 6.353,-2.976 5.967,-3.041 5.546,-3.041 c -0.407,0 -0.785,0.067 -1.136,0.2 -0.351,0.133 -0.655,0.323 -0.911,0.568 -0.256,0.246 -0.458,0.539 -0.605,0.879 -0.147,0.34 -0.221,0.717 -0.221,1.131 0,0.464 0.089,0.867 0.268,1.211 0.179,0.343 0.42,0.626 0.721,0.847 0.302,0.221 0.646,0.38 1.032,0.479 0.386,0.098 0.789,0.133 1.21,0.105 v -3.926 c 0.484,0.021 0.835,0.144 1.053,0.369"
             style="fill:#ffffff;fill-opacity:1;fill-rule:nonzero;stroke:none"
             id="path288" />
        </g>
      </g>
    </g>
  </g>
</svg>
